<svg width="95" height="96" viewBox="0 0 95 96" fill="none" xmlns="http://www.w3.org/2000/svg">
<path d="M65 53C60.3587 53 55.9075 54.8437 52.6256 58.1256C49.3437 61.4075 47.5 65.8587 47.5 70.5M47.5 70.5V75.5M47.5 70.5C47.5 65.8587 45.6563 61.4075 42.3744 58.1256C39.0925 54.8437 34.6413 53 30 53M47.5 75.5C47.5 80.1413 49.3437 84.5925 52.6256 87.8744C55.9075 91.1563 60.3587 93 65 93C69.6413 93 74.0925 91.1563 77.3744 87.8744C80.6563 84.5925 82.5 80.1413 82.5 75.5V66.5M47.5 75.5C47.5 80.1413 45.6563 84.5925 42.3744 87.8744C39.0925 91.1563 34.6413 93 30 93C25.3587 93 20.9075 91.1563 17.6256 87.8744C14.3437 84.5925 12.5 80.1413 12.5 75.5V66.5" stroke="#4285F4" stroke-width="5" stroke-linecap="round" stroke-linejoin="round"/>
<path d="M75 68C79.6413 68 84.0925 66.1563 87.3744 62.8744C90.6563 59.5925 92.5 55.1413 92.5 50.5C92.5 45.8587 90.6563 41.4075 87.3744 38.1256C84.0925 34.8437 79.6413 33 75 33H72.5" stroke="#4285F4" stroke-width="5" stroke-linecap="round" stroke-linejoin="round"/>
<path d="M82.5 34.5V20.5C82.5 15.8587 80.6563 11.4075 77.3744 8.12563C74.0925 4.84375 69.6413 3 65 3C60.3587 3 55.9075 4.84375 52.6256 8.12563C49.3438 11.4075 47.5 15.8587 47.5 20.5M20 68C15.3587 68 10.9075 66.1563 7.62563 62.8744C4.34375 59.5925 2.5 55.1413 2.5 50.5C2.5 45.8587 4.34375 41.4075 7.62563 38.1256C10.9075 34.8437 15.3587 33 20 33H22.5" stroke="#4285F4" stroke-width="5" stroke-linecap="round" stroke-linejoin="round"/>
<path d="M12.5 34.5V20.5C12.5 15.8587 14.3437 11.4075 17.6256 8.12563C20.9075 4.84375 25.3587 3 30 3C34.6413 3 39.0925 4.84375 42.3744 8.12563C45.6563 11.4075 47.5 15.8587 47.5 20.5V70.5" stroke="#4285F4" stroke-width="5" stroke-linecap="round" stroke-linejoin="round"/>
</svg>
